<svg xmlns="http://www.w3.org/2000/svg" width="500" height="500.001" viewBox="0 0 500 500.001">
  <g id="pieza12" transform="translate(-13564 -500.999)">
    <path id="pieza12-2" data-name="pieza12" d="M100,350V300H0V200H50a50,50,0,1,0,0-100H0V0H100V50c0,.074,0,.15,0,.224V50.5A50,50,0,0,0,200,50V0H300V100h50a50,50,0,1,1,0,100H300V300H200v50a50,50,0,1,1-100,0Zm200-50Z" transform="translate(13964.001 901.001) rotate(180)" fill="#c5e7e8"/>
    <rect id="Rectángulo_2100" data-name="Rectángulo 2100" width="100" height="100" transform="translate(13564 501)" fill="rgba(255,255,255,0)" opacity="0.12"/>
    <rect id="Rectángulo_2101" data-name="Rectángulo 2101" width="100" height="100" transform="translate(13564 701)" fill="rgba(255,255,255,0)" opacity="0.12"/>
    <rect id="Rectángulo_2102" data-name="Rectángulo 2102" width="100" height="100" transform="translate(13564 601)" fill="rgba(255,255,255,0)" opacity="0.12"/>
    <rect id="Rectángulo_2103" data-name="Rectángulo 2103" width="100" height="100" transform="translate(13564 801)" fill="rgba(255,255,255,0)" opacity="0.12"/>
    <rect id="Rectángulo_2104" data-name="Rectángulo 2104" width="100" height="100" transform="translate(13564 901)" fill="rgba(255,255,255,0)" opacity="0.12"/>
    <rect id="Rectángulo_2093" data-name="Rectángulo 2093" width="100" height="100" transform="translate(13664 501)" fill="rgba(255,255,255,0)" opacity="0.12"/>
    <rect id="Rectángulo_2094" data-name="Rectángulo 2094" width="100" height="100" transform="translate(13664 701)" fill="rgba(255,255,255,0)" opacity="0.12"/>
    <rect id="Rectángulo_2095" data-name="Rectángulo 2095" width="100" height="100" transform="translate(13664 601)" fill="rgba(255,255,255,0)" opacity="0.12"/>
    <rect id="Rectángulo_2096" data-name="Rectángulo 2096" width="100" height="100" transform="translate(13664 801)" fill="rgba(255,255,255,0)" opacity="0.12"/>
    <rect id="Rectángulo_2105" data-name="Rectángulo 2105" width="100" height="100" transform="translate(13664 901)" fill="rgba(255,255,255,0)" opacity="0.12"/>
    <rect id="Rectángulo_2090" data-name="Rectángulo 2090" width="100" height="100" transform="translate(13764 501)" fill="rgba(255,255,255,0)" opacity="0.12"/>
    <rect id="Rectángulo_2091" data-name="Rectángulo 2091" width="100" height="100" transform="translate(13764 701)" fill="rgba(255,255,255,0)" opacity="0.12"/>
    <rect id="Rectángulo_2092" data-name="Rectángulo 2092" width="100" height="100" transform="translate(13764 601)" fill="rgba(255,255,255,0)" opacity="0.12"/>
    <rect id="Rectángulo_2097" data-name="Rectángulo 2097" width="100" height="100" transform="translate(13764 801)" fill="rgba(255,255,255,0)" opacity="0.12"/>
    <rect id="Rectángulo_2106" data-name="Rectángulo 2106" width="100" height="100" transform="translate(13764 901)" fill="rgba(255,255,255,0)" opacity="0.12"/>
    <rect id="Rectángulo_2086" data-name="Rectángulo 2086" width="100" height="100" transform="translate(13864 501)" fill="rgba(255,255,255,0)" opacity="0.12"/>
    <rect id="Rectángulo_2087" data-name="Rectángulo 2087" width="100" height="100" transform="translate(13864 701)" fill="rgba(255,255,255,0)" opacity="0.12"/>
    <rect id="Rectángulo_2088" data-name="Rectángulo 2088" width="100" height="100" transform="translate(13864 601)" fill="rgba(255,255,255,0)" opacity="0.12"/>
    <rect id="Rectángulo_2098" data-name="Rectángulo 2098" width="100" height="100" transform="translate(13864 801)" fill="rgba(255,255,255,0)" opacity="0.12"/>
    <rect id="Rectángulo_2107" data-name="Rectángulo 2107" width="100" height="100" transform="translate(13864 901)" fill="rgba(255,255,255,0)" opacity="0.12"/>
    <rect id="Rectángulo_2099" data-name="Rectángulo 2099" width="100" height="100" transform="translate(13964 801)" fill="rgba(255,255,255,0)" opacity="0.12"/>
    <rect id="Rectángulo_2108" data-name="Rectángulo 2108" width="100" height="100" transform="translate(13964 901)" fill="rgba(255,255,255,0)" opacity="0.12"/>
    <rect id="Rectángulo_2085" data-name="Rectángulo 2085" width="100" height="100" transform="translate(13964 601)" fill="rgba(255,255,255,0)" opacity="0.12"/>
    <rect id="Rectángulo_2084" data-name="Rectángulo 2084" width="100" height="100" transform="translate(13964 501)" fill="rgba(255,255,255,0)" opacity="0.12"/>
    <rect id="Rectángulo_2089" data-name="Rectángulo 2089" width="100" height="100" transform="translate(13964 701)" fill="rgba(255,255,255,0)" opacity="0.12"/>
  </g>
</svg>
